<svg enable-background="new 0 0 32 32" viewBox="0 0 32 32" xmlns="http://www.w3.org/2000/svg"><path d="m17.38 23.36h-2.76c-.199 0-.36-.161-.36-.36v-1.567l-.869-.363-1.111 1.111c-.067.067-.159.105-.254.105-.096 0-.187-.038-.254-.105l-1.952-1.952c-.141-.141-.141-.369 0-.51l1.108-1.107-.357-.871h-1.571c-.199 0-.36-.161-.36-.36v-2.76c0-.199.161-.36.36-.36h1.567l.363-.869-1.11-1.112c-.14-.141-.14-.368 0-.509l1.951-1.952c.135-.136.374-.136.509 0l1.108 1.109.872-.357v-1.571c0-.199.161-.36.36-.36h2.76c.199 0 .36.161.36.36v1.567l.868.363 1.11-1.111c.135-.135.375-.136.51 0l1.952 1.952c.067.067.105.159.105.254 0 .096-.038.187-.105.254l-1.109 1.108.357.872h1.572c.199 0 .36.161.36.36v2.76c0 .199-.161.36-.36.36h-1.567l-.363.868 1.111 1.11c.067.067.105.159.105.255s-.038.188-.105.255l-1.952 1.952c-.067.067-.159.105-.255.105-.096 0-.188-.038-.255-.105l-1.107-1.109-.871.357v1.573c-.001.199-.162.36-.361.36zm-2.4-.72h2.04v-1.452c0-.146.089-.277.224-.333l1.316-.54c.134-.057.288-.024.392.078l1.022 1.024 1.443-1.443-1.028-1.026c-.103-.104-.134-.259-.077-.394l.55-1.312c.056-.134.187-.222.332-.222h1.446v-2.04h-1.452c-.146 0-.277-.088-.333-.223l-.54-1.316c-.055-.134-.024-.289.078-.391l1.024-1.023-1.443-1.443-1.026 1.027c-.104.103-.259.135-.394.078l-1.312-.549c-.134-.056-.222-.187-.222-.332v-1.448h-2.04v1.452c0 .146-.088.278-.223.333l-1.316.54c-.135.054-.288.024-.391-.079l-1.023-1.023-1.442 1.443 1.027 1.028c.103.103.134.259.077.394l-.549 1.312c-.056.134-.187.221-.332.221h-1.448v2.04h1.452c.146 0 .278.089.333.224l.54 1.316c.055.135.024.289-.079.392l-1.022 1.022 1.442 1.443 1.028-1.028c.104-.104.259-.133.394-.077l1.312.55c.134.056.221.187.221.332zm1.02-3.28c-1.853 0-3.36-1.508-3.36-3.36s1.507-3.36 3.36-3.36 3.36 1.507 3.36 3.36-1.507 3.36-3.36 3.36zm0-6c-1.456 0-2.64 1.185-2.64 2.64 0 1.456 1.185 2.64 2.64 2.64 1.456 0 2.64-1.184 2.64-2.64s-1.184-2.64-2.64-2.64zm0 18c-4.529 0-8.716-1.933-11.64-5.338v3.978h-.72v-5.36h5.36v.721h-4.257c2.793 3.364 6.855 5.279 11.257 5.279 8.072 0 14.64-6.567 14.64-14.64h.721c-.001 8.47-6.891 15.36-15.361 15.36zm-14.64-15.36h-.72c0-8.47 6.89-15.36 15.36-15.36 4.529 0 8.716 1.933 11.64 5.337v-3.977h.721v5.36h-5.361v-.72h4.257c-2.793-3.365-6.856-5.28-11.257-5.28-8.073 0-14.64 6.567-14.64 14.64z"/><path d="m0 0h32v32h-32z" fill="none"/></svg>