<svg height="64" viewBox="0 0 128 128" width="64" xmlns="http://www.w3.org/2000/svg" xmlns:xlink="http://www.w3.org/1999/xlink"><linearGradient id="a" gradientUnits="userSpaceOnUse" x1="0" x2="128" y1="128" y2="0"><stop offset="0" stop-color="#333"/><stop offset="1" stop-color="#5d5d5d"/></linearGradient><path d="m15.15625 16.84375c-4.093462 0-7.40625 3.312788-7.40625 7.40625v13.125 11.21875 40.53125c0 4.093455 3.312788 7.375 7.40625 7.375h43v4.65625h-5.9375c-1.43851 0-2.59375 1.15524-2.59375 2.59375v4.8125c0 1.43851 1.15524 2.59375 2.59375 2.59375h23.5625c1.43851 0 2.59375-1.15524 2.59375-2.59375v-4.8125c0-1.43851-1.15524-2.59375-2.59375-2.59375h-5.9375v-4.65625h43c4.09346 0 7.40625-3.281545 7.40625-7.375v-51.75c0-4.093462-3.31287-7.34985-7.40625-7.375h-59.4375v-5.75c0-4.093462-3.281538-7.40625-7.375-7.40625zm32.40625 36.28125h8.78125v4h-3.59375v3.78125h3.21875v3.8125h-3.21875v8.375h-5.1875zm9.15625 0h11.34375v4h-3.0625v15.96875h-5.1875v-15.96875h-3.09375zm12.53125 0h5.25c1.413959.00002 2.493684.12181 3.25.34375.764518.221979 1.340586.549511 1.71875.96875.386363.419275.618456.931154.75 1.53125.13974.59191.218738 1.500464.21875 2.75v1.75c-.000012 1.274225-.111949 2.197588-.375 2.78125-.263075.583681-.761778 1.031371-1.46875 1.34375-.698772.312396-1.615548.468758-2.75.46875h-1.40625v8.03125h-5.1875zm5.1875 3.4375v5.0625c.147967.0082.299374.03126.40625.03125.476796.000011.787887-.113558.96875-.34375.189069-.238389.281242-.728871.28125-1.46875v-1.65625c-.000008-.682306-.098769-1.106966-.3125-1.3125-.213746-.205502-.669657-.312483-1.34375-.3125zm-66.6875 46.34375v6.5h39.59375c-.0011-.0436 0-.0811 0-.125v-5.4375c0-.31974.03785-.63441.09375-.9375zm72.8125 0c.0559.30309.09375.61776.09375.9375v5.4375c0 .0439.0011.0814 0 .125h39.59375v-6.5z" fill="url(#a)"/></svg>