<svg viewBox="0 0 294.27 322.1" xmlns="http://www.w3.org/2000/svg" xmlns:xlink="http://www.w3.org/1999/xlink"><linearGradient id="a" gradientUnits="userSpaceOnUse" x1="219.04" x2="230.3" y1="101.03" y2="546.98"><stop offset="0" stop-opacity="0"/><stop offset=".95"/></linearGradient><linearGradient id="b" x1="77.37" x2="63.11" xlink:href="#a" y1="104.91" y2="143.39"/><linearGradient id="c" x1="86.57" x2="72.31" xlink:href="#a" y1="104.91" y2="143.39"/><linearGradient id="d" x1="95.77" x2="81.5" xlink:href="#a" y1="104.91" y2="143.39"/><linearGradient id="e" x1="124.67" x2="110.41" xlink:href="#a" y1="104.91" y2="143.39"/><linearGradient id="f" x1="133.87" x2="119.61" xlink:href="#a" y1="104.91" y2="143.39"/><linearGradient id="g" x1="143.07" x2="128.8" xlink:href="#a" y1="104.91" y2="143.39"/><linearGradient id="h" x1="188.58" x2="174.32" xlink:href="#a" y1="104.91" y2="143.39"/><linearGradient id="i" x1="197.78" x2="183.51" xlink:href="#a" y1="104.91" y2="143.39"/><linearGradient id="j" x1="206.98" x2="192.71" xlink:href="#a" y1="104.91" y2="143.39"/><linearGradient id="k" x1="235.88" x2="221.62" xlink:href="#a" y1="104.91" y2="143.39"/><linearGradient id="l" x1="245.08" x2="230.81" xlink:href="#a" y1="104.91" y2="143.39"/><linearGradient id="m" x1="254.28" x2="240.01" xlink:href="#a" y1="104.91" y2="143.39"/><linearGradient id="n" x1="77.37" x2="63.11" xlink:href="#a" y1="231.42" y2="269.89"/><linearGradient id="o" x1="86.57" x2="72.31" xlink:href="#a" y1="231.42" y2="269.89"/><linearGradient id="p" x1="95.77" x2="81.5" xlink:href="#a" y1="231.42" y2="269.89"/><linearGradient id="q" x1="124.67" x2="110.41" xlink:href="#a" y1="231.42" y2="269.89"/><linearGradient id="r" x1="133.87" x2="119.61" xlink:href="#a" y1="231.42" y2="269.89"/><linearGradient id="s" x1="143.07" x2="128.8" xlink:href="#a" y1="231.42" y2="269.89"/><linearGradient id="t" x1="188.58" x2="174.32" xlink:href="#a" y1="231.42" y2="269.89"/><linearGradient id="u" x1="197.78" x2="183.51" xlink:href="#a" y1="231.42" y2="269.89"/><linearGradient id="v" x1="206.98" x2="192.71" xlink:href="#a" y1="231.42" y2="269.89"/><linearGradient id="w" x1="235.88" x2="221.62" xlink:href="#a" y1="231.42" y2="269.89"/><linearGradient id="x" x1="245.08" x2="230.81" xlink:href="#a" y1="231.42" y2="269.89"/><linearGradient id="y" x1="254.28" x2="240.01" xlink:href="#a" y1="231.42" y2="269.89"/><linearGradient id="z" x1="240.06" x2="124.25" xlink:href="#a" y1="36.52" y2="97.52"/><linearGradient id="A" x1="174.18" x2="76.57" xlink:href="#a" y1="55.74" y2="107.16"/><linearGradient id="B" x1="101.63" x2="108.39" xlink:href="#a" y1="524.89" y2="-149.12"/><linearGradient id="C" x1="102.04" x2="108.8" xlink:href="#a" y1="524.89" y2="-149.12"/><linearGradient id="D" x1="102.45" x2="109.21" xlink:href="#a" y1="524.89" y2="-149.11"/><linearGradient id="E" x1="210.85" x2="217.61" xlink:href="#a" y1="525.98" y2="-148.03"/><linearGradient id="F" x1="211.27" x2="218.03" xlink:href="#a" y1="525.98" y2="-148.02"/><linearGradient id="G" x1="211.68" x2="218.44" xlink:href="#a" y1="525.99" y2="-148.02"/><linearGradient id="H" x1="167.49" x2="166.93" xlink:href="#a" y1="91.56" y2="310.04"/><linearGradient id="I" x1="276.73" x2="276.17" xlink:href="#a" y1="91.56" y2="310.04"/><linearGradient id="J" x1="167.49" x2="166.93" xlink:href="#a" y1="132.85" y2="351.33"/><linearGradient id="K" x1="276.73" x2="276.17" xlink:href="#a" y1="132.85" y2="351.33"/><linearGradient id="L" x1="167.49" x2="166.93" xlink:href="#a" y1="174.15" y2="392.62"/><linearGradient id="M" x1="276.73" x2="276.17" xlink:href="#a" y1="174.15" y2="392.62"/><path d="m326.79 58c-1.93-26.07-22.17-49.75-47.63-55.71-23-5.39-47 2.63-70.56.83-9.15-.71-18.15-2.89-27.32-3.12a65.74 65.74 0 0 0 -52.57 24.76c-14.66 18.69-24.71 41.85-27.25 65.48-7.64 72.5-34.65 90.62-37.9 111.3-12.56 79.82 69.44 117.08 134.54 120.37 59.39 3 138.76-34.56 148.73-47.31 14.44-18.45 10.24-64.75 3.77-87.26-5.18-18-13.21-36-14.74-54.88-1.27-15.65.21-24.88-5.95-40.38-4.3-10.82-2.28-22.77-3.12-34.08z" fill="#68e1fd" opacity=".24" transform="translate(-62.28 .03)"/><path d="m332.38 120.31a39.3 39.3 0 0 1 -39.31 39.32h-147a39.3 39.3 0 0 1 -1.93-78.56 37.86 37.86 0 0 1 37.25-31.33h5.05a38 38 0 0 1 24.09 8.64 45.47 45.47 0 0 1 87.79 16.62 33.23 33.23 0 0 1 -.53 6.32 39.29 39.29 0 0 1 34.59 38.99z" fill="#68e1fd" transform="translate(-62.28 .03)"/><path d="m332.38 120.31a39.3 39.3 0 0 1 -39.31 39.32h-147a39.3 39.3 0 0 1 -1.93-78.56 37.86 37.86 0 0 1 37.25-31.33h5.05a38 38 0 0 1 24.09 8.64 45.47 45.47 0 0 1 87.79 16.62 33.23 33.23 0 0 1 -.53 6.32 39.29 39.29 0 0 1 34.59 38.99z" fill="url(#a)" transform="translate(-62.28 .03)"/><path d="m331.82 109a36.82 36.82 0 0 1 -11.43 26.65 39.65 39.65 0 0 1 -27.61 11h-146c-21.59 0-39.1-16.83-39.1-37.68a36.93 36.93 0 0 1 11.43-26.65 39.52 39.52 0 0 1 25.76-11 35.52 35.52 0 0 1 10.47-19.32 38.1 38.1 0 0 1 26.55-10.65h5a38.52 38.52 0 0 1 23.91 8.29c6.54-16.19 22.85-27.67 42-27.67 25 0 45.18 19.51 45.18 43.61a30.63 30.63 0 0 1 -.53 6.06c19.38 2.23 34.37 18.1 34.37 37.36z" fill="#fff" transform="translate(-62.28 .03)"/><rect fill="url(#b)" height="19.14" rx="2.25" width="4.5" x="68.7" y="112.65"/><rect fill="url(#c)" height="19.14" rx="2.25" width="4.5" x="77.9" y="112.65"/><rect fill="url(#d)" height="19.14" rx="2.25" width="4.5" x="87.1" y="112.65"/><rect fill="url(#e)" height="19.14" rx="2.25" width="4.5" x="116" y="112.65"/><rect fill="url(#f)" height="19.14" rx="2.25" width="4.5" x="125.2" y="112.65"/><rect fill="url(#g)" height="19.14" rx="2.25" width="4.5" x="134.4" y="112.65"/><rect fill="url(#h)" height="19.14" rx="2.25" width="4.5" x="179.91" y="112.65"/><rect fill="url(#i)" height="19.14" rx="2.25" width="4.5" x="189.11" y="112.65"/><rect fill="url(#j)" height="19.14" rx="2.25" width="4.5" x="198.31" y="112.65"/><rect fill="url(#k)" height="19.14" rx="2.25" width="4.5" x="227.21" y="112.65"/><rect fill="url(#l)" height="19.14" rx="2.25" width="4.5" x="236.41" y="112.65"/><rect fill="url(#m)" height="19.14" rx="2.25" width="4.5" x="245.61" y="112.65"/><rect fill="url(#n)" height="19.14" rx="2.25" width="4.5" x="68.7" y="239.15"/><rect fill="url(#o)" height="19.14" rx="2.25" width="4.5" x="77.9" y="239.15"/><rect fill="url(#p)" height="19.14" rx="2.25" width="4.5" x="87.1" y="239.15"/><rect fill="url(#q)" height="19.14" rx="2.25" width="4.5" x="116" y="239.15"/><rect fill="url(#r)" height="19.14" rx="2.25" width="4.5" x="125.2" y="239.15"/><rect fill="url(#s)" height="19.14" rx="2.25" width="4.5" x="134.4" y="239.15"/><rect fill="url(#t)" height="19.14" rx="2.25" width="4.5" x="179.91" y="239.15"/><rect fill="url(#u)" height="19.14" rx="2.25" width="4.5" x="189.11" y="239.15"/><rect fill="url(#v)" height="19.14" rx="2.25" width="4.5" x="198.31" y="239.15"/><rect fill="url(#w)" height="19.14" rx="2.25" width="4.5" x="227.21" y="239.15"/><rect fill="url(#x)" height="19.14" rx="2.25" width="4.5" x="236.41" y="239.15"/><rect fill="url(#y)" height="19.14" rx="2.25" width="4.5" x="245.61" y="239.15"/><path d="m210.82 49.64 10.26 10.61s6.38-38.25 46.55-35.66c0 0-37.8-13.34-56.81 25.05z" fill="url(#z)" transform="translate(-62.28 .03)"/><path d="m144.9 71.38s7.3-.8 14.24 7.64c0 0 1.5-34.16 30.5-34.72 0 0-11.88-7.59-28.43 3.1-14.83 9.6-16.31 23.98-16.31 23.98z" fill="url(#A)" transform="translate(-62.28 .03)"/><rect fill="#68e1fd" height="34.24" rx="11.07" width="100.79" x="55" y="131.65"/><rect fill="#68e1fd" height="34.24" rx="11.07" width="100.79" x="55" y="173"/><rect fill="#68e1fd" height="34.24" rx="11.07" width="100.79" x="55" y="213.92"/><rect fill="#68e1fd" height="34.24" rx="11.07" width="100.79" x="164.24" y="131.65"/><rect fill="#68e1fd" height="34.24" rx="11.07" width="100.79" x="164.24" y="173"/><rect fill="#68e1fd" height="34.24" rx="11.07" width="100.79" x="164.24" y="213.92"/><rect fill="url(#B)" height="34.24" rx="11.07" width="100.79" x="55" y="131.65"/><rect fill="url(#C)" height="34.24" rx="11.07" width="100.79" x="55" y="173"/><rect fill="url(#D)" height="34.24" rx="11.07" width="100.79" x="55" y="213.92"/><rect fill="url(#E)" height="34.24" rx="11.07" width="100.79" x="164.24" y="131.65"/><rect fill="url(#F)" height="34.24" rx="11.07" width="100.79" x="164.24" y="173"/><rect fill="url(#G)" height="34.24" rx="11.07" width="100.79" x="164.24" y="213.92"/><rect fill="#68e1fd" height="34.24" rx="11.07" width="100.79" x="55.24" y="124.8"/><rect fill="#68e1fd" height="34.24" rx="11.07" width="100.79" x="55.24" y="166.15"/><rect fill="#68e1fd" height="34.24" rx="11.07" width="100.79" x="55.24" y="207.07"/><rect fill="#68e1fd" height="34.24" rx="11.07" width="100.79" x="164.48" y="124.8"/><rect fill="#68e1fd" height="34.24" rx="11.07" width="100.79" x="164.48" y="166.15"/><rect fill="#68e1fd" height="34.24" rx="11.07" width="100.79" x="164.48" y="207.07"/><path d="m117.29 142.69h100.51v-9.14s-.56-7.7-10.56-8.78h-80.38s-12.11 2.86-9.57 17.92z" fill="url(#H)" transform="translate(-62.28 .03)"/><path d="m226.52 142.69h100.48v-9.14s-.55-7.7-10.55-8.78h-80.35s-12.1 2.86-9.58 17.92z" fill="url(#I)" transform="translate(-62.28 .03)"/><path d="m117.29 184h100.51v-9.15s-.56-7.7-10.56-8.78h-80.38s-12.11 2.85-9.57 17.93z" fill="url(#J)" transform="translate(-62.28 .03)"/><path d="m226.52 184h100.48v-9.15s-.55-7.7-10.55-8.78h-80.35s-12.1 2.85-9.58 17.93z" fill="url(#K)" transform="translate(-62.28 .03)"/><path d="m117.29 225.28h100.51v-9.15s-.56-7.7-10.56-8.77h-80.38s-12.11 2.85-9.57 17.92z" fill="url(#L)" transform="translate(-62.28 .03)"/><path d="m226.52 225.28h100.48v-9.15s-.55-7.7-10.55-8.77h-80.35s-12.1 2.85-9.58 17.92z" fill="url(#M)" transform="translate(-62.28 .03)"/><g fill="#fff"><circle cx="112.58" cy="142.16" r="3.52"/><circle cx="122.53" cy="142.16" r="3.52"/><circle cx="132.47" cy="142.16" r="3.52"/><circle cx="230.07" cy="142.16" r="3.52"/><circle cx="240.02" cy="142.16" r="3.52"/><circle cx="249.97" cy="142.16" r="3.52"/><circle cx="112.58" cy="184.16" r="3.52"/><circle cx="122.53" cy="184.16" r="3.52"/><circle cx="132.47" cy="184.16" r="3.52"/><circle cx="230.07" cy="184.16" r="3.52"/><circle cx="240.02" cy="184.16" r="3.52"/><circle cx="249.97" cy="184.16" r="3.52"/><circle cx="112.58" cy="226.16" r="3.52"/><circle cx="122.53" cy="226.16" r="3.52"/><circle cx="132.47" cy="226.16" r="3.52"/><circle cx="230.07" cy="226.16" r="3.52"/><circle cx="240.02" cy="226.16" r="3.52"/><circle cx="249.97" cy="226.16" r="3.52"/></g></svg>